<svg width="24" height="24" viewBox="0 0 24 24" fill="none" xmlns="http://www.w3.org/2000/svg">
<path d="M5 4C5 2.89543 5.89543 2 7 2H17C18.1046 2 19 2.89543 19 4V9C19 12.866 15.866 16 12 16C8.13401 16 5 12.866 5 9V4Z" fill="#C2C2C2"/>
<rect x="11" y="14" width="2" height="8" fill="#C2C2C2"/>
<path d="M7 21.3541C7 20.5363 7.4979 19.8009 8.25721 19.4971L12 18L15.7428 19.4971C16.5021 19.8009 17 20.5363 17 21.3541V22H7V21.3541Z" fill="#C2C2C2"/>
<path d="M11.5242 6.63196C11.6739 6.17131 12.3256 6.17131 12.4753 6.63197L12.7855 7.58688C12.8525 7.79289 13.0445 7.93237 13.2611 7.93237H14.2651C14.7495 7.93237 14.9509 8.55218 14.559 8.83688L13.7467 9.42705C13.5715 9.55437 13.4981 9.78006 13.5651 9.98607L13.8754 10.941C14.025 11.4016 13.4978 11.7847 13.1059 11.5L12.2936 10.9098C12.1184 10.7825 11.8811 10.7825 11.7058 10.9098L10.8935 11.5C10.5017 11.7847 9.97445 11.4016 10.1241 10.941L10.4344 9.98607C10.5013 9.78006 10.428 9.55437 10.2528 9.42705L9.44046 8.83688C9.04861 8.55218 9.25 7.93237 9.73436 7.93237H10.7384C10.955 7.93237 11.147 7.79289 11.2139 7.58688L11.5242 6.63196Z" fill="white"/>
<path fill-rule="evenodd" clip-rule="evenodd" d="M17.5 5C17.5 4.44772 17.9477 4 18.5 4H19C20.6569 4 22 5.34315 22 7V8C22 9.65685 20.6569 11 19 11H18C17.4477 11 17 10.5523 17 10C17 9.44772 17.4477 9 18 9H19C19.5523 9 20 8.55228 20 8V7C20 6.44772 19.5523 6 19 6H18.5C17.9477 6 17.5 5.55228 17.5 5Z" fill="#C2C2C2"/>
<path fill-rule="evenodd" clip-rule="evenodd" d="M6.5 5C6.5 4.44772 6.05228 4 5.5 4H5C3.34315 4 2 5.34315 2 7V8C2 9.65685 3.34315 11 5 11H6C6.55228 11 7 10.5523 7 10C7 9.44772 6.55228 9 6 9H5C4.44772 9 4 8.55228 4 8V7C4 6.44772 4.44772 6 5 6H5.5C6.05228 6 6.5 5.55228 6.5 5Z" fill="#C2C2C2"/>
</svg>
