<svg width="320" height="50" viewBox="0 0 320 50" fill="none" xmlns="http://www.w3.org/2000/svg">
<rect width="320" height="50" rx="24" fill="#FFE812"/>
<path d="M134.015 18.663H127.529V20.0663H132.28C132.231 20.8011 132.12 21.4972 131.938 22.1602L126.794 22.4862L127.021 23.9779L131.413 23.5691C130.59 25.2431 129.131 26.6575 126.678 27.8674L127.634 29.1713C132.844 26.5856 134.01 22.9227 134.015 18.663ZM135.993 31.3591H137.734V24.221H139.827V22.7901H137.734V17.2707H135.993V31.3591ZM147.843 18.663H141.357V20.0663H146.109C146.059 20.8011 145.948 21.4972 145.766 22.1602L140.622 22.4862L140.849 23.9779L145.241 23.5691C144.418 25.2431 142.959 26.6575 140.506 27.8674L141.462 29.1713C146.672 26.5856 147.838 22.9227 147.843 18.663ZM149.821 31.3591H151.562V24.221H153.656V22.7901H151.562V17.2707H149.821V31.3591ZM160.754 18.0608C157.743 18.0663 155.506 19.5801 155.511 21.8674C155.506 23.989 157.323 25.4033 159.893 25.6575V28.2486H154.329V29.674H167.241V28.2486H161.616V25.6575C164.202 25.4033 166.02 23.9945 166.02 21.8674C166.02 19.5801 163.782 18.0663 160.754 18.0608ZM157.213 21.8674C157.213 20.3978 158.683 19.4586 160.754 19.4641C162.843 19.4586 164.312 20.3978 164.312 21.8674C164.312 23.4033 162.843 24.3094 160.754 24.3149C158.683 24.3094 157.213 23.4033 157.213 21.8674ZM181.069 28.3149H175.444V26.011H179.864V24.5912H171.422V22.768H179.538V18.232H169.665V19.6354H177.82V21.3923H169.688V26.011H173.721V28.3149H168.157V29.7514H181.069V28.3149ZM198.694 28.3149H193.069V26.011H197.489V24.5912H189.047V22.768H197.163V18.232H187.29V19.6354H195.445V21.3923H187.312V26.011H191.346V28.3149H185.782V29.7514H198.694V28.3149ZM210.842 18.6354H200.969V20.0442H209.119V20.2376C209.113 22.0663 209.113 24.116 208.566 26.8895L210.328 27.0387C210.842 24.0718 210.842 22.1215 210.842 20.2376V18.6354ZM199.61 29.4586H212.478V28.0276H199.61V29.4586ZM225.195 17.2818H223.455V27.4862H225.195V17.2818ZM213.693 21.7348C213.687 23.8232 215.35 25.2818 217.499 25.2762C219.648 25.2818 221.3 23.8232 221.3 21.7348C221.3 19.6796 219.648 18.2099 217.499 18.2099C215.35 18.2099 213.687 19.6796 213.693 21.7348ZM215.389 21.7348C215.383 20.5138 216.289 19.7238 217.499 19.7238C218.676 19.7238 219.593 20.5138 219.593 21.7348C219.593 22.9889 218.676 23.7624 217.499 23.7624C216.289 23.7624 215.383 22.9889 215.389 21.7348ZM215.853 31.116H225.593V29.7072H217.604V26.4475H215.853V31.116Z" fill="#292929"/>
<path d="M106 14C99.3726 14 94 18.2361 94 23.4615C94 26.8398 96.2461 29.8042 99.6248 31.4781C99.4409 32.112 98.4436 35.5563 98.4039 35.8269C98.4039 35.8269 98.38 36.0301 98.5116 36.1077C98.6433 36.1852 98.7981 36.125 98.7981 36.125C99.1757 36.0723 103.176 33.2622 103.869 32.7742C104.56 32.8722 105.273 32.9231 106 32.9231C112.627 32.9231 118 28.6871 118 23.4615C118 18.2361 112.627 14 106 14Z" fill="#381F1F"/>
</svg>
