<svg width="24" height="24" viewBox="0 0 24 24" fill="none" xmlns="http://www.w3.org/2000/svg">
<circle cx="6" cy="6" r="4" fill="#C2C2C2"/>
<path d="M14 6C14 5.17157 14.6716 4.5 15.5 4.5H20.5C21.3284 4.5 22 5.17157 22 6C22 6.82843 21.3284 7.5 20.5 7.5H15.5C14.6716 7.5 14 6.82843 14 6Z" fill="#C2C2C2"/>
<circle cx="18" cy="18" r="4" fill="#C2C2C2"/>
<path d="M2 18C2 17.1716 2.67157 16.5 3.5 16.5H8.5C9.32843 16.5 10 17.1716 10 18C10 18.8284 9.32843 19.5 8.5 19.5H3.5C2.67157 19.5 2 18.8284 2 18Z" fill="#C2C2C2"/>
</svg>
